<?xml version="1.0" encoding="UTF-8" standalone="no"?><svg xmlns="http://www.w3.org/2000/svg" xmlns:xlink="http://www.w3.org/1999/xlink" contentScriptType="application/ecmascript" contentStyleType="text/css" height="366px" preserveAspectRatio="none" style="width:258px;height:366px;" version="1.1" viewBox="0 0 258 366" width="258px" zoomAndPan="magnify"><defs><filter height="300%" id="f5uuzwfkwceb8" width="300%" x="-1" y="-1"><feGaussianBlur result="blurOut" stdDeviation="2.0"/><feColorMatrix in="blurOut" result="blurOut2" type="matrix" values="0 0 0 0 0 0 0 0 0 0 0 0 0 0 0 0 0 0 .4 0"/><feOffset dx="4.0" dy="4.0" in="blurOut2" result="blurOut3"/><feBlend in="SourceGraphic" in2="blurOut3" mode="normal"/></filter></defs><g><!--MD5=[aa53a0bd202a9de9d30e3554382e99b3]
class Hpfwh:--><rect fill="#FEFECE" filter="url(#f5uuzwfkwceb8)" height="348.459" id="Hpfwh:" style="stroke: #A80036; stroke-width: 1.5;" width="240" x="7" y="7"/><ellipse cx="103.75" cy="23" fill="#ADD1B2" rx="11" ry="11" style="stroke: #A80036; stroke-width: 1.0;"/><path d="M102.3281,28.3594 Q100.4688,28.3594 99.375,26.9688 Q98.2813,25.5781 98.2813,22.5938 Q98.2813,20.0625 99.4453,18.4063 Q100.6094,16.75 102.5938,16.75 Q104.0625,16.75 104.5313,16.875 Q105,17.0781 105,17.0781 Q105,17.0781 105,17.0078 Q105,16.9375 105.6094,16.0156 L106.6563,19.6719 L105.3281,20.0781 Q104.8594,18.5313 104.1953,17.8672 Q103.5313,17.2031 102.4688,17.2031 Q102.0781,17.2031 101.3125,18.7344 Q100.5469,20.2656 100.5469,22.5156 Q100.5469,24.9844 101.2109,26.375 Q101.875,27.7656 102.4063,27.7656 Q103.4688,27.7656 104.2266,27 Q104.9844,26.2344 105.3281,24.5781 L106.6563,25.1719 Q106.3281,26.5781 105.4297,27.4688 Q104.5313,28.3594 102.3281,28.3594 Z "/><text fill="#000000" font-family="sans-serif" font-size="12" lengthAdjust="spacingAndGlyphs" textLength="38" x="124.25" y="28.5576">Hpfwh:</text><line style="stroke: #A80036; stroke-width: 1.5;" x1="8" x2="246" y1="39" y2="39"/><ellipse cx="18" cy="50" fill="none" rx="3" ry="3" style="stroke: #038048; stroke-width: 1.0;"/><text fill="#000000" font-family="sans-serif" font-size="11" lengthAdjust="spacingAndGlyphs" textLength="67" x="27" y="55.606">energy: string</text><ellipse cx="18" cy="65.0229" fill="none" rx="3" ry="3" style="stroke: #038048; stroke-width: 1.0;"/><text fill="#000000" font-family="sans-serif" font-size="11" lengthAdjust="spacingAndGlyphs" textLength="54" x="27" y="70.6289">type: string</text><ellipse cx="18" cy="80.0459" fill="none" rx="3" ry="3" style="stroke: #038048; stroke-width: 1.0;"/><text fill="#000000" font-family="sans-serif" font-size="11" lengthAdjust="spacingAndGlyphs" textLength="76" x="27" y="85.6519">name: 设备名称</text><ellipse cx="18" cy="95.0688" fill="none" rx="3" ry="3" style="stroke: #038048; stroke-width: 1.0;"/><text fill="#000000" font-family="sans-serif" font-size="11" lengthAdjust="spacingAndGlyphs" textLength="180" x="27" y="100.6748">inNode_fw: 闭式加热器入口节点名称</text><ellipse cx="18" cy="110.0918" fill="none" rx="3" ry="3" style="stroke: #038048; stroke-width: 1.0;"/><text fill="#000000" font-family="sans-serif" font-size="11" lengthAdjust="spacingAndGlyphs" textLength="187" x="27" y="115.6978">outNode_fw: 闭式加热器出口节点名称</text><ellipse cx="18" cy="125.1147" fill="none" rx="3" ry="3" style="stroke: #038048; stroke-width: 1.0;"/><text fill="#000000" font-family="sans-serif" font-size="11" lengthAdjust="spacingAndGlyphs" textLength="193" x="27" y="130.7207">inNode: 汽轮机流入闭式加热器节点名称</text><ellipse cx="18" cy="140.1377" fill="none" rx="3" ry="3" style="stroke: #038048; stroke-width: 1.0;"/><text fill="#000000" font-family="sans-serif" font-size="11" lengthAdjust="spacingAndGlyphs" textLength="214" x="27" y="145.7437">outNode_trap: 闭式加热器流向阀门节点名称</text><ellipse cx="18" cy="155.1606" fill="none" rx="3" ry="3" style="stroke: #038048; stroke-width: 1.0;"/><text fill="#000000" font-family="sans-serif" font-size="11" lengthAdjust="spacingAndGlyphs" textLength="174" x="27" y="160.7666">iNode_fw: 闭式加热器入口节点参数</text><ellipse cx="18" cy="170.1836" fill="none" rx="3" ry="3" style="stroke: #038048; stroke-width: 1.0;"/><text fill="#000000" font-family="sans-serif" font-size="11" lengthAdjust="spacingAndGlyphs" textLength="178" x="27" y="175.7896">oNode_fw: 闭式加热器出口节点参数</text><ellipse cx="18" cy="185.2065" fill="none" rx="3" ry="3" style="stroke: #038048; stroke-width: 1.0;"/><text fill="#000000" font-family="sans-serif" font-size="11" lengthAdjust="spacingAndGlyphs" textLength="187" x="27" y="190.8125">iNode: 汽轮机流入闭式加热器节点参数</text><ellipse cx="18" cy="200.2295" fill="none" rx="3" ry="3" style="stroke: #038048; stroke-width: 1.0;"/><text fill="#000000" font-family="sans-serif" font-size="11" lengthAdjust="spacingAndGlyphs" textLength="205" x="27" y="205.8354">oNode_trap: 闭式加热器流向阀门节点参数</text><ellipse cx="18" cy="215.2524" fill="none" rx="3" ry="3" style="stroke: #038048; stroke-width: 1.0;"/><text fill="#000000" font-family="sans-serif" font-size="11" lengthAdjust="spacingAndGlyphs" textLength="138" x="27" y="220.8584">heatAdded: 吸热量（kJ/kg）</text><ellipse cx="18" cy="230.2754" fill="none" rx="3" ry="3" style="stroke: #038048; stroke-width: 1.0;"/><text fill="#000000" font-family="sans-serif" font-size="11" lengthAdjust="spacingAndGlyphs" textLength="152" x="27" y="235.8813">heatExtracted: 放热量（kJ/kg）</text><ellipse cx="18" cy="245.2983" fill="none" rx="3" ry="3" style="stroke: #038048; stroke-width: 1.0;"/><text fill="#000000" font-family="sans-serif" font-size="11" lengthAdjust="spacingAndGlyphs" textLength="130" x="27" y="250.9043">QAdded: 吸热功率（MW）</text><ellipse cx="18" cy="260.3213" fill="none" rx="3" ry="3" style="stroke: #038048; stroke-width: 1.0;"/><text fill="#000000" font-family="sans-serif" font-size="11" lengthAdjust="spacingAndGlyphs" textLength="144" x="27" y="265.9272">QExtracted: 放热功率（MW）</text><line style="stroke: #A80036; stroke-width: 1.5;" x1="8" x2="246" y1="272.3442" y2="272.3442"/><ellipse cx="18" cy="283.3442" fill="#84BE84" rx="3" ry="3" style="stroke: #038048; stroke-width: 1.0;"/><text fill="#000000" font-family="sans-serif" font-size="11" lengthAdjust="spacingAndGlyphs" textLength="84" x="27" y="288.9502">__init__(): 初始化</text><ellipse cx="18" cy="298.3672" fill="#84BE84" rx="3" ry="3" style="stroke: #038048; stroke-width: 1.0;"/><text fill="#000000" font-family="sans-serif" font-size="11" lengthAdjust="spacingAndGlyphs" textLength="104" x="27" y="303.9731">state(): 状态参数计算</text><ellipse cx="18" cy="313.3901" fill="#84BE84" rx="3" ry="3" style="stroke: #038048; stroke-width: 1.0;"/><text fill="#000000" font-family="sans-serif" font-size="11" lengthAdjust="spacingAndGlyphs" textLength="96" x="27" y="318.9961">balance(): 平衡计算</text><ellipse cx="18" cy="328.4131" fill="#84BE84" rx="3" ry="3" style="stroke: #038048; stroke-width: 1.0;"/><text fill="#000000" font-family="sans-serif" font-size="11" lengthAdjust="spacingAndGlyphs" textLength="112" x="27" y="334.019">sm_energy(): 功率计算</text><ellipse cx="18" cy="343.436" fill="#84BE84" rx="3" ry="3" style="stroke: #038048; stroke-width: 1.0;"/><text fill="#000000" font-family="sans-serif" font-size="11" lengthAdjust="spacingAndGlyphs" textLength="95" x="27" y="349.042">__str__(): 结果输出</text><!--MD5=[b92067ed2bbefe0bcb754003bd7eaf09]
@startuml

class Hpfwh:
{
    +energy: string
    +type: string
    +name: 设备名称
    +inNode_fw: 闭式加热器入口节点名称
    +outNode_fw: 闭式加热器出口节点名称
    +inNode: 汽轮机流入闭式加热器节点名称
    +outNode_trap: 闭式加热器流向阀门节点名称
    +iNode_fw: 闭式加热器入口节点参数
    +oNode_fw: 闭式加热器出口节点参数
    +iNode: 汽轮机流入闭式加热器节点参数
    +oNode_trap: 闭式加热器流向阀门节点参数
    +heatAdded: 吸热量（kJ/kg）
    +heatExtracted: 放热量（kJ/kg）
    +QAdded: 吸热功率（MW）
    +QExtracted: 放热功率（MW）
    +__init__(): 初始化
    +state(): 状态参数计算
    +balance(): 平衡计算
    +sm_energy(): 功率计算
    +__str__(): 结果输出
}

@enduml

PlantUML version 1.2020.10(Sun May 17 17:35:57 CST 2020)
(GPL source distribution)
Java Runtime: Java(TM) SE Runtime Environment
JVM: Java HotSpot(TM) 64-Bit Server VM
Java Version: 1.7.0_65-b20
Operating System: Windows 8.1
Default Encoding: GBK
Language: zh
Country: CN
--></g></svg>