<?xml version="1.0" encoding="UTF-8" standalone="no"?><svg xmlns="http://www.w3.org/2000/svg" xmlns:xlink="http://www.w3.org/1999/xlink" contentScriptType="application/ecmascript" contentStyleType="text/css" height="426px" preserveAspectRatio="none" style="width:258px;height:426px;" version="1.1" viewBox="0 0 258 426" width="258px" zoomAndPan="magnify"><defs><filter height="300%" id="f13g076222bt1" width="300%" x="-1" y="-1"><feGaussianBlur result="blurOut" stdDeviation="2.0"/><feColorMatrix in="blurOut" result="blurOut2" type="matrix" values="0 0 0 0 0 0 0 0 0 0 0 0 0 0 0 0 0 0 .4 0"/><feOffset dx="4.0" dy="4.0" in="blurOut2" result="blurOut3"/><feBlend in="SourceGraphic" in2="blurOut3" mode="normal"/></filter></defs><g><!--MD5=[6ed1b6e051411c6793d25ea605ad3c4f]
class Lpfwh:--><rect fill="#FEFECE" filter="url(#f13g076222bt1)" height="408.5508" id="Lpfwh:" style="stroke: #A80036; stroke-width: 1.5;" width="240" x="7" y="7"/><ellipse cx="104.75" cy="23" fill="#ADD1B2" rx="11" ry="11" style="stroke: #A80036; stroke-width: 1.0;"/><path d="M103.3281,28.3594 Q101.4688,28.3594 100.375,26.9688 Q99.2813,25.5781 99.2813,22.5938 Q99.2813,20.0625 100.4453,18.4063 Q101.6094,16.75 103.5938,16.75 Q105.0625,16.75 105.5313,16.875 Q106,17.0781 106,17.0781 Q106,17.0781 106,17.0078 Q106,16.9375 106.6094,16.0156 L107.6563,19.6719 L106.3281,20.0781 Q105.8594,18.5313 105.1953,17.8672 Q104.5313,17.2031 103.4688,17.2031 Q103.0781,17.2031 102.3125,18.7344 Q101.5469,20.2656 101.5469,22.5156 Q101.5469,24.9844 102.2109,26.375 Q102.875,27.7656 103.4063,27.7656 Q104.4688,27.7656 105.2266,27 Q105.9844,26.2344 106.3281,24.5781 L107.6563,25.1719 Q107.3281,26.5781 106.4297,27.4688 Q105.5313,28.3594 103.3281,28.3594 Z "/><text fill="#000000" font-family="sans-serif" font-size="12" lengthAdjust="spacingAndGlyphs" textLength="36" x="125.25" y="28.5576">Lpfwh:</text><line style="stroke: #A80036; stroke-width: 1.5;" x1="8" x2="246" y1="39" y2="39"/><ellipse cx="18" cy="50" fill="none" rx="3" ry="3" style="stroke: #038048; stroke-width: 1.0;"/><text fill="#000000" font-family="sans-serif" font-size="11" lengthAdjust="spacingAndGlyphs" textLength="67" x="27" y="55.606">energy: string</text><ellipse cx="18" cy="65.0229" fill="none" rx="3" ry="3" style="stroke: #038048; stroke-width: 1.0;"/><text fill="#000000" font-family="sans-serif" font-size="11" lengthAdjust="spacingAndGlyphs" textLength="54" x="27" y="70.6289">type: string</text><ellipse cx="18" cy="80.0459" fill="none" rx="3" ry="3" style="stroke: #038048; stroke-width: 1.0;"/><text fill="#000000" font-family="sans-serif" font-size="11" lengthAdjust="spacingAndGlyphs" textLength="76" x="27" y="85.6519">name: 设备名称</text><ellipse cx="18" cy="95.0688" fill="none" rx="3" ry="3" style="stroke: #038048; stroke-width: 1.0;"/><text fill="#000000" font-family="sans-serif" font-size="11" lengthAdjust="spacingAndGlyphs" textLength="180" x="27" y="100.6748">inNode_fw: 开式加热器入口节点名称</text><ellipse cx="18" cy="110.0918" fill="none" rx="3" ry="3" style="stroke: #038048; stroke-width: 1.0;"/><text fill="#000000" font-family="sans-serif" font-size="11" lengthAdjust="spacingAndGlyphs" textLength="187" x="27" y="115.6978">outNode_fw: 开式加热器出口节点名称</text><ellipse cx="18" cy="125.1147" fill="none" rx="3" ry="3" style="stroke: #038048; stroke-width: 1.0;"/><text fill="#000000" font-family="sans-serif" font-size="11" lengthAdjust="spacingAndGlyphs" textLength="193" x="27" y="130.7207">inNode: 汽轮机流入开式加热器节点名称</text><ellipse cx="18" cy="140.1377" fill="none" rx="3" ry="3" style="stroke: #038048; stroke-width: 1.0;"/><text fill="#000000" font-family="sans-serif" font-size="11" lengthAdjust="spacingAndGlyphs" textLength="214" x="27" y="145.7437">outNode_trap: 阀门流入开式加热器节点名称</text><ellipse cx="18" cy="155.1606" fill="none" rx="3" ry="3" style="stroke: #038048; stroke-width: 1.0;"/><text fill="#000000" font-family="sans-serif" font-size="11" lengthAdjust="spacingAndGlyphs" textLength="174" x="27" y="160.7666">iNode_fw: 开式加热器入口节点参数</text><ellipse cx="18" cy="170.1836" fill="none" rx="3" ry="3" style="stroke: #038048; stroke-width: 1.0;"/><text fill="#000000" font-family="sans-serif" font-size="11" lengthAdjust="spacingAndGlyphs" textLength="178" x="27" y="175.7896">oNode_fw: 开式加热器出口节点参数</text><ellipse cx="18" cy="185.2065" fill="none" rx="3" ry="3" style="stroke: #038048; stroke-width: 1.0;"/><text fill="#000000" font-family="sans-serif" font-size="11" lengthAdjust="spacingAndGlyphs" textLength="187" x="27" y="190.8125">iNode: 汽轮机流入闭式加热器节点参数</text><ellipse cx="18" cy="200.2295" fill="none" rx="3" ry="3" style="stroke: #038048; stroke-width: 1.0;"/><text fill="#000000" font-family="sans-serif" font-size="11" lengthAdjust="spacingAndGlyphs" textLength="205" x="27" y="205.8354">oNode_trap: 阀门流入开式加热器节点参数</text><ellipse cx="18" cy="215.2524" fill="none" rx="3" ry="3" style="stroke: #038048; stroke-width: 1.0;"/><text fill="#000000" font-family="sans-serif" font-size="11" lengthAdjust="spacingAndGlyphs" textLength="138" x="27" y="220.8584">heatAdded: 吸热量（kJ/kg）</text><ellipse cx="18" cy="230.2754" fill="none" rx="3" ry="3" style="stroke: #038048; stroke-width: 1.0;"/><text fill="#000000" font-family="sans-serif" font-size="11" lengthAdjust="spacingAndGlyphs" textLength="152" x="27" y="235.8813">heatExtracted: 放热量（kJ/kg）</text><ellipse cx="18" cy="245.2983" fill="none" rx="3" ry="3" style="stroke: #038048; stroke-width: 1.0;"/><text fill="#000000" font-family="sans-serif" font-size="11" lengthAdjust="spacingAndGlyphs" textLength="130" x="27" y="250.9043">QAdded: 吸热功率（MW）</text><ellipse cx="18" cy="260.3213" fill="none" rx="3" ry="3" style="stroke: #038048; stroke-width: 1.0;"/><text fill="#000000" font-family="sans-serif" font-size="11" lengthAdjust="spacingAndGlyphs" textLength="144" x="27" y="265.9272">QExtracted: 放热功率（MW）</text><ellipse cx="18" cy="275.3442" fill="none" rx="3" ry="3" style="stroke: #038048; stroke-width: 1.0;"/><text fill="#000000" font-family="sans-serif" font-size="11" lengthAdjust="spacingAndGlyphs" textLength="200" x="27" y="280.9502">QExtracted_s: 回热工质放热功率（MW）</text><ellipse cx="18" cy="290.3672" fill="none" rx="3" ry="3" style="stroke: #038048; stroke-width: 1.0;"/><text fill="#000000" font-family="sans-serif" font-size="11" lengthAdjust="spacingAndGlyphs" textLength="200" x="27" y="295.9731">QExtracted_d: 阀门工质放热功率（MW）</text><line style="stroke: #A80036; stroke-width: 1.5;" x1="8" x2="246" y1="302.3901" y2="302.3901"/><ellipse cx="18" cy="313.3901" fill="#84BE84" rx="3" ry="3" style="stroke: #038048; stroke-width: 1.0;"/><text fill="#000000" font-family="sans-serif" font-size="11" lengthAdjust="spacingAndGlyphs" textLength="201" x="27" y="318.9961">heatExtracted_s: 回热工质放热量（kJ/kg)</text><ellipse cx="18" cy="328.4131" fill="#84BE84" rx="3" ry="3" style="stroke: #038048; stroke-width: 1.0;"/><text fill="#000000" font-family="sans-serif" font-size="11" lengthAdjust="spacingAndGlyphs" textLength="201" x="27" y="334.019">heatExtracted_d: 阀门工质放热量（kJ/kg)</text><ellipse cx="18" cy="343.436" fill="#84BE84" rx="3" ry="3" style="stroke: #038048; stroke-width: 1.0;"/><text fill="#000000" font-family="sans-serif" font-size="11" lengthAdjust="spacingAndGlyphs" textLength="84" x="27" y="349.042">__init__(): 初始化</text><ellipse cx="18" cy="358.459" fill="#84BE84" rx="3" ry="3" style="stroke: #038048; stroke-width: 1.0;"/><text fill="#000000" font-family="sans-serif" font-size="11" lengthAdjust="spacingAndGlyphs" textLength="104" x="27" y="364.0649">state(): 状态参数计算</text><ellipse cx="18" cy="373.4819" fill="#84BE84" rx="3" ry="3" style="stroke: #038048; stroke-width: 1.0;"/><text fill="#000000" font-family="sans-serif" font-size="11" lengthAdjust="spacingAndGlyphs" textLength="96" x="27" y="379.0879">balance(): 平衡计算</text><ellipse cx="18" cy="388.5049" fill="#84BE84" rx="3" ry="3" style="stroke: #038048; stroke-width: 1.0;"/><text fill="#000000" font-family="sans-serif" font-size="11" lengthAdjust="spacingAndGlyphs" textLength="112" x="27" y="394.1108">sm_energy(): 功率计算</text><ellipse cx="18" cy="403.5278" fill="#84BE84" rx="3" ry="3" style="stroke: #038048; stroke-width: 1.0;"/><text fill="#000000" font-family="sans-serif" font-size="11" lengthAdjust="spacingAndGlyphs" textLength="95" x="27" y="409.1338">__str__(): 结果输出</text><!--MD5=[13703456ccfa02c7833d9c724b0494ab]
@startuml

class Lpfwh:
{
    +energy: string
    +type: string
    +name: 设备名称
    +inNode_fw: 开式加热器入口节点名称
    +outNode_fw: 开式加热器出口节点名称
    +inNode: 汽轮机流入开式加热器节点名称
    +outNode_trap: 阀门流入开式加热器节点名称
    +iNode_fw: 开式加热器入口节点参数
    +oNode_fw: 开式加热器出口节点参数
    +iNode: 汽轮机流入闭式加热器节点参数
    +oNode_trap: 阀门流入开式加热器节点参数
    +heatAdded: 吸热量（kJ/kg）
    +heatExtracted: 放热量（kJ/kg）
    +heatExtracted_s: 回热工质放热量（kJ/kg)
    +heatExtracted_d: 阀门工质放热量（kJ/kg)
    +QAdded: 吸热功率（MW）
    +QExtracted: 放热功率（MW）
    +QExtracted_s: 回热工质放热功率（MW）
    +QExtracted_d: 阀门工质放热功率（MW）
    +__init__(): 初始化
    +state(): 状态参数计算
    +balance(): 平衡计算
    +sm_energy(): 功率计算
    +__str__(): 结果输出
}

@enduml

PlantUML version 1.2020.10(Sun May 17 17:35:57 CST 2020)
(GPL source distribution)
Java Runtime: Java(TM) SE Runtime Environment
JVM: Java HotSpot(TM) 64-Bit Server VM
Java Version: 1.7.0_65-b20
Operating System: Windows 8.1
Default Encoding: GBK
Language: zh
Country: CN
--></g></svg>