<?xml version="1.0" encoding="UTF-8" standalone="no"?><svg xmlns="http://www.w3.org/2000/svg" xmlns:xlink="http://www.w3.org/1999/xlink" contentScriptType="application/ecmascript" contentStyleType="text/css" height="366px" preserveAspectRatio="none" style="width:181px;height:366px;" version="1.1" viewBox="0 0 181 366" width="181px" zoomAndPan="magnify"><defs><filter height="300%" id="f1hhbx6venayrj" width="300%" x="-1" y="-1"><feGaussianBlur result="blurOut" stdDeviation="2.0"/><feColorMatrix in="blurOut" result="blurOut2" type="matrix" values="0 0 0 0 0 0 0 0 0 0 0 0 0 0 0 0 0 0 .4 0"/><feOffset dx="4.0" dy="4.0" in="blurOut2" result="blurOut3"/><feBlend in="SourceGraphic" in2="blurOut3" mode="normal"/></filter></defs><g><!--MD5=[2bf8c52c3770ec8673b96eb3ace88266]
class Node:--><rect fill="#FEFECE" filter="url(#f1hhbx6venayrj)" height="348.459" id="Node:" style="stroke: #A80036; stroke-width: 1.5;" width="163" x="7" y="7"/><ellipse cx="67.75" cy="23" fill="#ADD1B2" rx="11" ry="11" style="stroke: #A80036; stroke-width: 1.0;"/><path d="M66.3281,28.3594 Q64.4688,28.3594 63.375,26.9688 Q62.2813,25.5781 62.2813,22.5938 Q62.2813,20.0625 63.4453,18.4063 Q64.6094,16.75 66.5938,16.75 Q68.0625,16.75 68.5313,16.875 Q69,17.0781 69,17.0781 Q69,17.0781 69,17.0078 Q69,16.9375 69.6094,16.0156 L70.6563,19.6719 L69.3281,20.0781 Q68.8594,18.5313 68.1953,17.8672 Q67.5313,17.2031 66.4688,17.2031 Q66.0781,17.2031 65.3125,18.7344 Q64.5469,20.2656 64.5469,22.5156 Q64.5469,24.9844 65.2109,26.375 Q65.875,27.7656 66.4063,27.7656 Q67.4688,27.7656 68.2266,27 Q68.9844,26.2344 69.3281,24.5781 L70.6563,25.1719 Q70.3281,26.5781 69.4297,27.4688 Q68.5313,28.3594 66.3281,28.3594 Z "/><text fill="#000000" font-family="sans-serif" font-size="12" lengthAdjust="spacingAndGlyphs" textLength="33" x="88.25" y="28.5576">Node:</text><line style="stroke: #A80036; stroke-width: 1.5;" x1="8" x2="169" y1="39" y2="39"/><ellipse cx="18" cy="50" fill="none" rx="3" ry="3" style="stroke: #038048; stroke-width: 1.0;"/><text fill="#000000" font-family="sans-serif" font-size="11" lengthAdjust="spacingAndGlyphs" textLength="16" x="27" y="55.606">title</text><ellipse cx="18" cy="65.0229" fill="none" rx="3" ry="3" style="stroke: #038048; stroke-width: 1.0;"/><text fill="#000000" font-family="sans-serif" font-size="11" lengthAdjust="spacingAndGlyphs" textLength="76" x="27" y="70.6289">name: 过程名称</text><ellipse cx="18" cy="80.0459" fill="none" rx="3" ry="3" style="stroke: #038048; stroke-width: 1.0;"/><text fill="#000000" font-family="sans-serif" font-size="11" lengthAdjust="spacingAndGlyphs" textLength="36" x="27" y="85.6519">id: 编号</text><ellipse cx="18" cy="95.0688" fill="none" rx="3" ry="3" style="stroke: #038048; stroke-width: 1.0;"/><text fill="#000000" font-family="sans-serif" font-size="11" lengthAdjust="spacingAndGlyphs" textLength="76" x="27" y="100.6748">p: 压力（MPa）</text><ellipse cx="18" cy="110.0918" fill="none" rx="3" ry="3" style="stroke: #038048; stroke-width: 1.0;"/><text fill="#000000" font-family="sans-serif" font-size="11" lengthAdjust="spacingAndGlyphs" textLength="64" x="27" y="115.6978">t: 温度（°C）</text><ellipse cx="18" cy="125.1147" fill="none" rx="3" ry="3" style="stroke: #038048; stroke-width: 1.0;"/><text fill="#000000" font-family="sans-serif" font-size="11" lengthAdjust="spacingAndGlyphs" textLength="34" x="27" y="130.7207">x: 干度</text><ellipse cx="18" cy="140.1377" fill="none" rx="3" ry="3" style="stroke: #038048; stroke-width: 1.0;"/><text fill="#000000" font-family="sans-serif" font-size="11" lengthAdjust="spacingAndGlyphs" textLength="69" x="27" y="145.7437">fdot: 流量份额</text><ellipse cx="18" cy="155.1606" fill="none" rx="3" ry="3" style="stroke: #038048; stroke-width: 1.0;"/><text fill="#000000" font-family="sans-serif" font-size="11" lengthAdjust="spacingAndGlyphs" textLength="115" x="27" y="160.7666">mdot: 质量流量（kg/h）</text><ellipse cx="18" cy="170.1836" fill="none" rx="3" ry="3" style="stroke: #038048; stroke-width: 1.0;"/><text fill="#000000" font-family="sans-serif" font-size="11" lengthAdjust="spacingAndGlyphs" textLength="80" x="27" y="175.7896">h: 比焓（kJ/kg）</text><ellipse cx="18" cy="185.2065" fill="none" rx="3" ry="3" style="stroke: #038048; stroke-width: 1.0;"/><text fill="#000000" font-family="sans-serif" font-size="11" lengthAdjust="spacingAndGlyphs" textLength="91" x="27" y="190.8125">s: 比熵（kJ/kg*K）</text><ellipse cx="18" cy="200.2295" fill="none" rx="3" ry="3" style="stroke: #038048; stroke-width: 1.0;"/><text fill="#000000" font-family="sans-serif" font-size="11" lengthAdjust="spacingAndGlyphs" textLength="89" x="27" y="205.8354">v: 比容（m^3/kg）</text><line style="stroke: #A80036; stroke-width: 1.5;" x1="8" x2="169" y1="212.2524" y2="212.2524"/><ellipse cx="18" cy="223.2524" fill="#84BE84" rx="3" ry="3" style="stroke: #038048; stroke-width: 1.0;"/><text fill="#000000" font-family="sans-serif" font-size="11" lengthAdjust="spacingAndGlyphs" textLength="84" x="27" y="228.8584">__init__(): 初始化</text><ellipse cx="18" cy="238.2754" fill="#84BE84" rx="3" ry="3" style="stroke: #038048; stroke-width: 1.0;"/><text fill="#000000" font-family="sans-serif" font-size="11" lengthAdjust="spacingAndGlyphs" textLength="117" x="27" y="243.8813">calmdot(): 计算质量流量</text><ellipse cx="18" cy="253.2983" fill="#84BE84" rx="3" ry="3" style="stroke: #038048; stroke-width: 1.0;"/><text fill="#000000" font-family="sans-serif" font-size="11" lengthAdjust="spacingAndGlyphs" textLength="131" x="27" y="258.9043">pt(): 已知p，t求出剩余参数</text><ellipse cx="18" cy="268.3213" fill="#84BE84" rx="3" ry="3" style="stroke: #038048; stroke-width: 1.0;"/><text fill="#000000" font-family="sans-serif" font-size="11" lengthAdjust="spacingAndGlyphs" textLength="137" x="27" y="273.9272">ph(): 已知p，h求出剩余参数</text><ellipse cx="18" cy="283.3442" fill="#84BE84" rx="3" ry="3" style="stroke: #038048; stroke-width: 1.0;"/><text fill="#000000" font-family="sans-serif" font-size="11" lengthAdjust="spacingAndGlyphs" textLength="137" x="27" y="288.9502">ps(): 已知p，s求出剩余参数</text><ellipse cx="18" cy="298.3672" fill="#84BE84" rx="3" ry="3" style="stroke: #038048; stroke-width: 1.0;"/><text fill="#000000" font-family="sans-serif" font-size="11" lengthAdjust="spacingAndGlyphs" textLength="137" x="27" y="303.9731">hs(): 已知h，s求出剩余参数</text><ellipse cx="18" cy="313.3901" fill="#84BE84" rx="3" ry="3" style="stroke: #038048; stroke-width: 1.0;"/><text fill="#000000" font-family="sans-serif" font-size="11" lengthAdjust="spacingAndGlyphs" textLength="137" x="27" y="318.9961">px(): 已知p，x求出剩余参数</text><ellipse cx="18" cy="328.4131" fill="#84BE84" rx="3" ry="3" style="stroke: #038048; stroke-width: 1.0;"/><text fill="#000000" font-family="sans-serif" font-size="11" lengthAdjust="spacingAndGlyphs" textLength="131" x="27" y="334.019">tx(): 已知t，x求出剩余参数</text><ellipse cx="18" cy="343.436" fill="#84BE84" rx="3" ry="3" style="stroke: #038048; stroke-width: 1.0;"/><text fill="#000000" font-family="sans-serif" font-size="11" lengthAdjust="spacingAndGlyphs" textLength="95" x="27" y="349.042">__str__(): 结果输出</text><!--MD5=[c37720b235e482510da3940f54df3017]
@startuml

class Node:
{
    +title
    +name: 过程名称
    +id: 编号
    +p: 压力（MPa）
    +t: 温度（°C）
    +x: 干度
    +fdot: 流量份额
    +mdot: 质量流量（kg/h）
    +h: 比焓（kJ/kg）
    +s: 比熵（kJ/kg*K）
    +v: 比容（m^3/kg）
    +__init__(): 初始化
    +calmdot(): 计算质量流量
    +pt(): 已知p，t求出剩余参数
    +ph(): 已知p，h求出剩余参数
    +ps(): 已知p，s求出剩余参数
    +hs(): 已知h，s求出剩余参数
    +px(): 已知p，x求出剩余参数
    +tx(): 已知t，x求出剩余参数
    +__str__(): 结果输出
}

@enduml

PlantUML version 1.2020.10(Sun May 17 17:35:57 CST 2020)
(GPL source distribution)
Java Runtime: Java(TM) SE Runtime Environment
JVM: Java HotSpot(TM) 64-Bit Server VM
Java Version: 1.7.0_65-b20
Operating System: Windows 8.1
Default Encoding: GBK
Language: zh
Country: CN
--></g></svg>