<?xml version="1.0" encoding="UTF-8" standalone="no"?><svg xmlns="http://www.w3.org/2000/svg" xmlns:xlink="http://www.w3.org/1999/xlink" contentScriptType="application/ecmascript" contentStyleType="text/css" height="291px" preserveAspectRatio="none" style="width:197px;height:291px;" version="1.1" viewBox="0 0 197 291" width="197px" zoomAndPan="magnify"><defs><filter height="300%" id="f1jbq78f1p898i" width="300%" x="-1" y="-1"><feGaussianBlur result="blurOut" stdDeviation="2.0"/><feColorMatrix in="blurOut" result="blurOut2" type="matrix" values="0 0 0 0 0 0 0 0 0 0 0 0 0 0 0 0 0 0 .4 0"/><feOffset dx="4.0" dy="4.0" in="blurOut2" result="blurOut3"/><feBlend in="SourceGraphic" in2="blurOut3" mode="normal"/></filter></defs><g><!--MD5=[65dceb21ec7d6669ff30cf8438deb45d]
class Pump:--><rect fill="#FEFECE" filter="url(#f1jbq78f1p898i)" height="273.3442" id="Pump:" style="stroke: #A80036; stroke-width: 1.5;" width="179" x="7" y="7"/><ellipse cx="74.25" cy="23" fill="#ADD1B2" rx="11" ry="11" style="stroke: #A80036; stroke-width: 1.0;"/><path d="M72.8281,28.3594 Q70.9688,28.3594 69.875,26.9688 Q68.7813,25.5781 68.7813,22.5938 Q68.7813,20.0625 69.9453,18.4063 Q71.1094,16.75 73.0938,16.75 Q74.5625,16.75 75.0313,16.875 Q75.5,17.0781 75.5,17.0781 Q75.5,17.0781 75.5,17.0078 Q75.5,16.9375 76.1094,16.0156 L77.1563,19.6719 L75.8281,20.0781 Q75.3594,18.5313 74.6953,17.8672 Q74.0313,17.2031 72.9688,17.2031 Q72.5781,17.2031 71.8125,18.7344 Q71.0469,20.2656 71.0469,22.5156 Q71.0469,24.9844 71.7109,26.375 Q72.375,27.7656 72.9063,27.7656 Q73.9688,27.7656 74.7266,27 Q75.4844,26.2344 75.8281,24.5781 L77.1563,25.1719 Q76.8281,26.5781 75.9297,27.4688 Q75.0313,28.3594 72.8281,28.3594 Z "/><text fill="#000000" font-family="sans-serif" font-size="12" lengthAdjust="spacingAndGlyphs" textLength="36" x="94.75" y="28.5576">Pump:</text><line style="stroke: #A80036; stroke-width: 1.5;" x1="8" x2="185" y1="39" y2="39"/><ellipse cx="18" cy="50" fill="none" rx="3" ry="3" style="stroke: #038048; stroke-width: 1.0;"/><text fill="#000000" font-family="sans-serif" font-size="11" lengthAdjust="spacingAndGlyphs" textLength="67" x="27" y="55.606">energy: string</text><ellipse cx="18" cy="65.0229" fill="none" rx="3" ry="3" style="stroke: #038048; stroke-width: 1.0;"/><text fill="#000000" font-family="sans-serif" font-size="11" lengthAdjust="spacingAndGlyphs" textLength="54" x="27" y="70.6289">type: string</text><ellipse cx="18" cy="80.0459" fill="none" rx="3" ry="3" style="stroke: #038048; stroke-width: 1.0;"/><text fill="#000000" font-family="sans-serif" font-size="11" lengthAdjust="spacingAndGlyphs" textLength="76" x="27" y="85.6519">name: 设备名称</text><ellipse cx="18" cy="95.0688" fill="none" rx="3" ry="3" style="stroke: #038048; stroke-width: 1.0;"/><text fill="#000000" font-family="sans-serif" font-size="11" lengthAdjust="spacingAndGlyphs" textLength="116" x="27" y="100.6748">inNode: 泵入口节点名称</text><ellipse cx="18" cy="110.0918" fill="none" rx="3" ry="3" style="stroke: #038048; stroke-width: 1.0;"/><text fill="#000000" font-family="sans-serif" font-size="11" lengthAdjust="spacingAndGlyphs" textLength="123" x="27" y="115.6978">outNode: 泵出口节点名称</text><ellipse cx="18" cy="125.1147" fill="none" rx="3" ry="3" style="stroke: #038048; stroke-width: 1.0;"/><text fill="#000000" font-family="sans-serif" font-size="11" lengthAdjust="spacingAndGlyphs" textLength="49" x="27" y="130.7207">ef: 泵效率</text><ellipse cx="18" cy="140.1377" fill="none" rx="3" ry="3" style="stroke: #038048; stroke-width: 1.0;"/><text fill="#000000" font-family="sans-serif" font-size="11" lengthAdjust="spacingAndGlyphs" textLength="99" x="27" y="145.7437">iNode: 入口节点参数</text><ellipse cx="18" cy="155.1606" fill="none" rx="3" ry="3" style="stroke: #038048; stroke-width: 1.0;"/><text fill="#000000" font-family="sans-serif" font-size="11" lengthAdjust="spacingAndGlyphs" textLength="103" x="27" y="160.7666">oNode: 出口节点参数</text><ellipse cx="18" cy="170.1836" fill="none" rx="3" ry="3" style="stroke: #038048; stroke-width: 1.0;"/><text fill="#000000" font-family="sans-serif" font-size="11" lengthAdjust="spacingAndGlyphs" textLength="153" x="27" y="175.7896">workRequired: 耗功量（kJ/kg）</text><ellipse cx="18" cy="185.2065" fill="none" rx="3" ry="3" style="stroke: #038048; stroke-width: 1.0;"/><text fill="#000000" font-family="sans-serif" font-size="11" lengthAdjust="spacingAndGlyphs" textLength="121" x="27" y="190.8125">WRequired: 功率（MW）</text><line style="stroke: #A80036; stroke-width: 1.5;" x1="8" x2="185" y1="197.2295" y2="197.2295"/><ellipse cx="18" cy="208.2295" fill="#84BE84" rx="3" ry="3" style="stroke: #038048; stroke-width: 1.0;"/><text fill="#000000" font-family="sans-serif" font-size="11" lengthAdjust="spacingAndGlyphs" textLength="84" x="27" y="213.8354">__init__(): 初始化</text><ellipse cx="18" cy="223.2524" fill="#84BE84" rx="3" ry="3" style="stroke: #038048; stroke-width: 1.0;"/><text fill="#000000" font-family="sans-serif" font-size="11" lengthAdjust="spacingAndGlyphs" textLength="104" x="27" y="228.8584">state(): 状态参数计算</text><ellipse cx="18" cy="238.2754" fill="#84BE84" rx="3" ry="3" style="stroke: #038048; stroke-width: 1.0;"/><text fill="#000000" font-family="sans-serif" font-size="11" lengthAdjust="spacingAndGlyphs" textLength="96" x="27" y="243.8813">balance(): 平衡计算</text><ellipse cx="18" cy="253.2983" fill="#84BE84" rx="3" ry="3" style="stroke: #038048; stroke-width: 1.0;"/><text fill="#000000" font-family="sans-serif" font-size="11" lengthAdjust="spacingAndGlyphs" textLength="112" x="27" y="258.9043">sm_energy(): 功率计算</text><ellipse cx="18" cy="268.3213" fill="#84BE84" rx="3" ry="3" style="stroke: #038048; stroke-width: 1.0;"/><text fill="#000000" font-family="sans-serif" font-size="11" lengthAdjust="spacingAndGlyphs" textLength="95" x="27" y="273.9272">__str__(): 结果输出</text><!--MD5=[5713ab2f75c9d87cb90e47ffb329e5c1]
@startuml

class Pump:
{
    +energy: string
    +type: string
    +name: 设备名称
    +inNode: 泵入口节点名称
    +outNode: 泵出口节点名称
    +ef: 泵效率
    +iNode: 入口节点参数
    +oNode: 出口节点参数
    +workRequired: 耗功量（kJ/kg）
    +WRequired: 功率（MW）
    +__init__(): 初始化
    +state(): 状态参数计算
    +balance(): 平衡计算
    +sm_energy(): 功率计算
    +__str__(): 结果输出
}

@enduml

PlantUML version 1.2020.10(Sun May 17 17:35:57 CST 2020)
(GPL source distribution)
Java Runtime: Java(TM) SE Runtime Environment
JVM: Java HotSpot(TM) 64-Bit Server VM
Java Version: 1.7.0_65-b20
Operating System: Windows 8.1
Default Encoding: GBK
Language: zh
Country: CN
--></g></svg>