<?xml version="1.0" encoding="UTF-8" standalone="no"?><svg xmlns="http://www.w3.org/2000/svg" xmlns:xlink="http://www.w3.org/1999/xlink" contentScriptType="application/ecmascript" contentStyleType="text/css" height="276px" preserveAspectRatio="none" style="width:189px;height:276px;" version="1.1" viewBox="0 0 189 276" width="189px" zoomAndPan="magnify"><defs><filter height="300%" id="f19sy8lhv0ay4y" width="300%" x="-1" y="-1"><feGaussianBlur result="blurOut" stdDeviation="2.0"/><feColorMatrix in="blurOut" result="blurOut2" type="matrix" values="0 0 0 0 0 0 0 0 0 0 0 0 0 0 0 0 0 0 .4 0"/><feOffset dx="4.0" dy="4.0" in="blurOut2" result="blurOut3"/><feBlend in="SourceGraphic" in2="blurOut3" mode="normal"/></filter></defs><g><!--MD5=[c5de2bffe6eca4c8136d7d8e06b30fca]
class Reheater:--><rect fill="#FEFECE" filter="url(#f19sy8lhv0ay4y)" height="258.3213" id="Reheater:" style="stroke: #A80036; stroke-width: 1.5;" width="171" x="7" y="7"/><ellipse cx="61.25" cy="23" fill="#ADD1B2" rx="11" ry="11" style="stroke: #A80036; stroke-width: 1.0;"/><path d="M59.8281,28.3594 Q57.9688,28.3594 56.875,26.9688 Q55.7813,25.5781 55.7813,22.5938 Q55.7813,20.0625 56.9453,18.4063 Q58.1094,16.75 60.0938,16.75 Q61.5625,16.75 62.0313,16.875 Q62.5,17.0781 62.5,17.0781 Q62.5,17.0781 62.5,17.0078 Q62.5,16.9375 63.1094,16.0156 L64.1563,19.6719 L62.8281,20.0781 Q62.3594,18.5313 61.6953,17.8672 Q61.0313,17.2031 59.9688,17.2031 Q59.5781,17.2031 58.8125,18.7344 Q58.0469,20.2656 58.0469,22.5156 Q58.0469,24.9844 58.7109,26.375 Q59.375,27.7656 59.9063,27.7656 Q60.9688,27.7656 61.7266,27 Q62.4844,26.2344 62.8281,24.5781 L64.1563,25.1719 Q63.8281,26.5781 62.9297,27.4688 Q62.0313,28.3594 59.8281,28.3594 Z "/><text fill="#000000" font-family="sans-serif" font-size="12" lengthAdjust="spacingAndGlyphs" textLength="54" x="81.75" y="28.5576">Reheater:</text><line style="stroke: #A80036; stroke-width: 1.5;" x1="8" x2="177" y1="39" y2="39"/><ellipse cx="18" cy="50" fill="none" rx="3" ry="3" style="stroke: #038048; stroke-width: 1.0;"/><text fill="#000000" font-family="sans-serif" font-size="11" lengthAdjust="spacingAndGlyphs" textLength="67" x="27" y="55.606">energy: string</text><ellipse cx="18" cy="65.0229" fill="none" rx="3" ry="3" style="stroke: #038048; stroke-width: 1.0;"/><text fill="#000000" font-family="sans-serif" font-size="11" lengthAdjust="spacingAndGlyphs" textLength="54" x="27" y="70.6289">type: string</text><ellipse cx="18" cy="80.0459" fill="none" rx="3" ry="3" style="stroke: #038048; stroke-width: 1.0;"/><text fill="#000000" font-family="sans-serif" font-size="11" lengthAdjust="spacingAndGlyphs" textLength="76" x="27" y="85.6519">name: 设备名称</text><ellipse cx="18" cy="95.0688" fill="none" rx="3" ry="3" style="stroke: #038048; stroke-width: 1.0;"/><text fill="#000000" font-family="sans-serif" font-size="11" lengthAdjust="spacingAndGlyphs" textLength="138" x="27" y="100.6748">inNode: 再热器入口节点名称</text><ellipse cx="18" cy="110.0918" fill="none" rx="3" ry="3" style="stroke: #038048; stroke-width: 1.0;"/><text fill="#000000" font-family="sans-serif" font-size="11" lengthAdjust="spacingAndGlyphs" textLength="145" x="27" y="115.6978">outNode: 再热器出口节点名称</text><ellipse cx="18" cy="125.1147" fill="none" rx="3" ry="3" style="stroke: #038048; stroke-width: 1.0;"/><text fill="#000000" font-family="sans-serif" font-size="11" lengthAdjust="spacingAndGlyphs" textLength="99" x="27" y="130.7207">iNode: 入口节点参数</text><ellipse cx="18" cy="140.1377" fill="none" rx="3" ry="3" style="stroke: #038048; stroke-width: 1.0;"/><text fill="#000000" font-family="sans-serif" font-size="11" lengthAdjust="spacingAndGlyphs" textLength="103" x="27" y="145.7437">oNode: 出口节点参数</text><ellipse cx="18" cy="155.1606" fill="none" rx="3" ry="3" style="stroke: #038048; stroke-width: 1.0;"/><text fill="#000000" font-family="sans-serif" font-size="11" lengthAdjust="spacingAndGlyphs" textLength="138" x="27" y="160.7666">heatAdded: 吸热量（kJ/kg）</text><ellipse cx="18" cy="170.1836" fill="none" rx="3" ry="3" style="stroke: #038048; stroke-width: 1.0;"/><text fill="#000000" font-family="sans-serif" font-size="11" lengthAdjust="spacingAndGlyphs" textLength="130" x="27" y="175.7896">QAdded: 吸热功率（MW）</text><line style="stroke: #A80036; stroke-width: 1.5;" x1="8" x2="177" y1="182.2065" y2="182.2065"/><ellipse cx="18" cy="193.2065" fill="#84BE84" rx="3" ry="3" style="stroke: #038048; stroke-width: 1.0;"/><text fill="#000000" font-family="sans-serif" font-size="11" lengthAdjust="spacingAndGlyphs" textLength="84" x="27" y="198.8125">__init__(): 初始化</text><ellipse cx="18" cy="208.2295" fill="#84BE84" rx="3" ry="3" style="stroke: #038048; stroke-width: 1.0;"/><text fill="#000000" font-family="sans-serif" font-size="11" lengthAdjust="spacingAndGlyphs" textLength="104" x="27" y="213.8354">state(): 状态参数计算</text><ellipse cx="18" cy="223.2524" fill="#84BE84" rx="3" ry="3" style="stroke: #038048; stroke-width: 1.0;"/><text fill="#000000" font-family="sans-serif" font-size="11" lengthAdjust="spacingAndGlyphs" textLength="96" x="27" y="228.8584">balance(): 平衡计算</text><ellipse cx="18" cy="238.2754" fill="#84BE84" rx="3" ry="3" style="stroke: #038048; stroke-width: 1.0;"/><text fill="#000000" font-family="sans-serif" font-size="11" lengthAdjust="spacingAndGlyphs" textLength="112" x="27" y="243.8813">sm_energy(): 功率计算</text><ellipse cx="18" cy="253.2983" fill="#84BE84" rx="3" ry="3" style="stroke: #038048; stroke-width: 1.0;"/><text fill="#000000" font-family="sans-serif" font-size="11" lengthAdjust="spacingAndGlyphs" textLength="95" x="27" y="258.9043">__str__(): 结果输出</text><!--MD5=[64cd4ad2c908e9fd7764550433ec13d8]
@startuml

class Reheater:
{
    +energy: string
    +type: string
    +name: 设备名称
    +inNode: 再热器入口节点名称
    +outNode: 再热器出口节点名称
    +iNode: 入口节点参数
    +oNode: 出口节点参数
    +heatAdded: 吸热量（kJ/kg）
    +QAdded: 吸热功率（MW）
    +__init__(): 初始化
    +state(): 状态参数计算
    +balance(): 平衡计算
    +sm_energy(): 功率计算
    +__str__(): 结果输出
}

@enduml

PlantUML version 1.2020.10(Sun May 17 17:35:57 CST 2020)
(GPL source distribution)
Java Runtime: Java(TM) SE Runtime Environment
JVM: Java HotSpot(TM) 64-Bit Server VM
Java Version: 1.7.0_65-b20
Operating System: Windows 8.1
Default Encoding: GBK
Language: zh
Country: CN
--></g></svg>