<?xml version="1.0" encoding="UTF-8" standalone="no"?><svg xmlns="http://www.w3.org/2000/svg" xmlns:xlink="http://www.w3.org/1999/xlink" contentScriptType="application/ecmascript" contentStyleType="text/css" height="246px" preserveAspectRatio="none" style="width:178px;height:246px;" version="1.1" viewBox="0 0 178 246" width="178px" zoomAndPan="magnify"><defs><filter height="300%" id="fon8h9kxs4rz5" width="300%" x="-1" y="-1"><feGaussianBlur result="blurOut" stdDeviation="2.0"/><feColorMatrix in="blurOut" result="blurOut2" type="matrix" values="0 0 0 0 0 0 0 0 0 0 0 0 0 0 0 0 0 0 .4 0"/><feOffset dx="4.0" dy="4.0" in="blurOut2" result="blurOut3"/><feBlend in="SourceGraphic" in2="blurOut3" mode="normal"/></filter></defs><g><!--MD5=[9685e84a150acb08d5780991394b5c6c]
class Trap:--><rect fill="#FEFECE" filter="url(#fon8h9kxs4rz5)" height="228.2754" id="Trap:" style="stroke: #A80036; stroke-width: 1.5;" width="160" x="7" y="7"/><ellipse cx="68.75" cy="23" fill="#ADD1B2" rx="11" ry="11" style="stroke: #A80036; stroke-width: 1.0;"/><path d="M67.3281,28.3594 Q65.4688,28.3594 64.375,26.9688 Q63.2813,25.5781 63.2813,22.5938 Q63.2813,20.0625 64.4453,18.4063 Q65.6094,16.75 67.5938,16.75 Q69.0625,16.75 69.5313,16.875 Q70,17.0781 70,17.0781 Q70,17.0781 70,17.0078 Q70,16.9375 70.6094,16.0156 L71.6563,19.6719 L70.3281,20.0781 Q69.8594,18.5313 69.1953,17.8672 Q68.5313,17.2031 67.4688,17.2031 Q67.0781,17.2031 66.3125,18.7344 Q65.5469,20.2656 65.5469,22.5156 Q65.5469,24.9844 66.2109,26.375 Q66.875,27.7656 67.4063,27.7656 Q68.4688,27.7656 69.2266,27 Q69.9844,26.2344 70.3281,24.5781 L71.6563,25.1719 Q71.3281,26.5781 70.4297,27.4688 Q69.5313,28.3594 67.3281,28.3594 Z "/><text fill="#000000" font-family="sans-serif" font-size="12" lengthAdjust="spacingAndGlyphs" textLength="28" x="89.25" y="28.5576">Trap:</text><line style="stroke: #A80036; stroke-width: 1.5;" x1="8" x2="166" y1="39" y2="39"/><ellipse cx="18" cy="50" fill="none" rx="3" ry="3" style="stroke: #038048; stroke-width: 1.0;"/><text fill="#000000" font-family="sans-serif" font-size="11" lengthAdjust="spacingAndGlyphs" textLength="67" x="27" y="55.606">energy: string</text><ellipse cx="18" cy="65.0229" fill="none" rx="3" ry="3" style="stroke: #038048; stroke-width: 1.0;"/><text fill="#000000" font-family="sans-serif" font-size="11" lengthAdjust="spacingAndGlyphs" textLength="54" x="27" y="70.6289">type: string</text><ellipse cx="18" cy="80.0459" fill="none" rx="3" ry="3" style="stroke: #038048; stroke-width: 1.0;"/><text fill="#000000" font-family="sans-serif" font-size="11" lengthAdjust="spacingAndGlyphs" textLength="76" x="27" y="85.6519">name: 设备名称</text><ellipse cx="18" cy="95.0688" fill="none" rx="3" ry="3" style="stroke: #038048; stroke-width: 1.0;"/><text fill="#000000" font-family="sans-serif" font-size="11" lengthAdjust="spacingAndGlyphs" textLength="127" x="27" y="100.6748">inNode: 阀门入口节点名称</text><ellipse cx="18" cy="110.0918" fill="none" rx="3" ry="3" style="stroke: #038048; stroke-width: 1.0;"/><text fill="#000000" font-family="sans-serif" font-size="11" lengthAdjust="spacingAndGlyphs" textLength="134" x="27" y="115.6978">outNode: 阀门出口节点名称</text><ellipse cx="18" cy="125.1147" fill="none" rx="3" ry="3" style="stroke: #038048; stroke-width: 1.0;"/><text fill="#000000" font-family="sans-serif" font-size="11" lengthAdjust="spacingAndGlyphs" textLength="99" x="27" y="130.7207">iNode: 入口节点参数</text><ellipse cx="18" cy="140.1377" fill="none" rx="3" ry="3" style="stroke: #038048; stroke-width: 1.0;"/><text fill="#000000" font-family="sans-serif" font-size="11" lengthAdjust="spacingAndGlyphs" textLength="103" x="27" y="145.7437">oNode: 出口节点参数</text><line style="stroke: #A80036; stroke-width: 1.5;" x1="8" x2="166" y1="152.1606" y2="152.1606"/><ellipse cx="18" cy="163.1606" fill="#84BE84" rx="3" ry="3" style="stroke: #038048; stroke-width: 1.0;"/><text fill="#000000" font-family="sans-serif" font-size="11" lengthAdjust="spacingAndGlyphs" textLength="84" x="27" y="168.7666">__init__(): 初始化</text><ellipse cx="18" cy="178.1836" fill="#84BE84" rx="3" ry="3" style="stroke: #038048; stroke-width: 1.0;"/><text fill="#000000" font-family="sans-serif" font-size="11" lengthAdjust="spacingAndGlyphs" textLength="104" x="27" y="183.7896">state(): 状态参数计算</text><ellipse cx="18" cy="193.2065" fill="#84BE84" rx="3" ry="3" style="stroke: #038048; stroke-width: 1.0;"/><text fill="#000000" font-family="sans-serif" font-size="11" lengthAdjust="spacingAndGlyphs" textLength="96" x="27" y="198.8125">balance(): 平衡计算</text><ellipse cx="18" cy="208.2295" fill="#84BE84" rx="3" ry="3" style="stroke: #038048; stroke-width: 1.0;"/><text fill="#000000" font-family="sans-serif" font-size="11" lengthAdjust="spacingAndGlyphs" textLength="112" x="27" y="213.8354">sm_energy(): 功率计算</text><ellipse cx="18" cy="223.2524" fill="#84BE84" rx="3" ry="3" style="stroke: #038048; stroke-width: 1.0;"/><text fill="#000000" font-family="sans-serif" font-size="11" lengthAdjust="spacingAndGlyphs" textLength="95" x="27" y="228.8584">__str__(): 结果输出</text><!--MD5=[7acf75183c51a43be003cfdee3653dbb]
@startuml

class Trap:
{
    +energy: string
    +type: string
    +name: 设备名称
    +inNode: 阀门入口节点名称
    +outNode: 阀门出口节点名称
    +iNode: 入口节点参数
    +oNode: 出口节点参数
    +__init__(): 初始化
    +state(): 状态参数计算
    +balance(): 平衡计算
    +sm_energy(): 功率计算
    +__str__(): 结果输出
}

@enduml

PlantUML version 1.2020.10(Sun May 17 17:35:57 CST 2020)
(GPL source distribution)
Java Runtime: Java(TM) SE Runtime Environment
JVM: Java HotSpot(TM) 64-Bit Server VM
Java Version: 1.7.0_65-b20
Operating System: Windows 8.1
Default Encoding: GBK
Language: zh
Country: CN
--></g></svg>