<?xml version="1.0" encoding="UTF-8" standalone="no"?><svg xmlns="http://www.w3.org/2000/svg" xmlns:xlink="http://www.w3.org/1999/xlink" contentScriptType="application/ecmascript" contentStyleType="text/css" height="321px" preserveAspectRatio="none" style="width:200px;height:321px;" version="1.1" viewBox="0 0 200 321" width="200px" zoomAndPan="magnify"><defs><filter height="300%" id="f10yhj63z47yn1" width="300%" x="-1" y="-1"><feGaussianBlur result="blurOut" stdDeviation="2.0"/><feColorMatrix in="blurOut" result="blurOut2" type="matrix" values="0 0 0 0 0 0 0 0 0 0 0 0 0 0 0 0 0 0 .4 0"/><feOffset dx="4.0" dy="4.0" in="blurOut2" result="blurOut3"/><feBlend in="SourceGraphic" in2="blurOut3" mode="normal"/></filter></defs><g><!--MD5=[1b79d88b1744495163c26b18c3c8b34f]
class Turbineex1:--><rect fill="#FEFECE" filter="url(#f10yhj63z47yn1)" height="303.3901" id="Turbineex1:" style="stroke: #A80036; stroke-width: 1.5;" width="182" x="7" y="7"/><ellipse cx="61.75" cy="23" fill="#ADD1B2" rx="11" ry="11" style="stroke: #A80036; stroke-width: 1.0;"/><path d="M60.3281,28.3594 Q58.4688,28.3594 57.375,26.9688 Q56.2813,25.5781 56.2813,22.5938 Q56.2813,20.0625 57.4453,18.4063 Q58.6094,16.75 60.5938,16.75 Q62.0625,16.75 62.5313,16.875 Q63,17.0781 63,17.0781 Q63,17.0781 63,17.0078 Q63,16.9375 63.6094,16.0156 L64.6563,19.6719 L63.3281,20.0781 Q62.8594,18.5313 62.1953,17.8672 Q61.5313,17.2031 60.4688,17.2031 Q60.0781,17.2031 59.3125,18.7344 Q58.5469,20.2656 58.5469,22.5156 Q58.5469,24.9844 59.2109,26.375 Q59.875,27.7656 60.4063,27.7656 Q61.4688,27.7656 62.2266,27 Q62.9844,26.2344 63.3281,24.5781 L64.6563,25.1719 Q64.3281,26.5781 63.4297,27.4688 Q62.5313,28.3594 60.3281,28.3594 Z "/><text fill="#000000" font-family="sans-serif" font-size="12" lengthAdjust="spacingAndGlyphs" textLength="64" x="82.25" y="28.5576">Turbineex1:</text><line style="stroke: #A80036; stroke-width: 1.5;" x1="8" x2="188" y1="39" y2="39"/><ellipse cx="18" cy="50" fill="none" rx="3" ry="3" style="stroke: #038048; stroke-width: 1.0;"/><text fill="#000000" font-family="sans-serif" font-size="11" lengthAdjust="spacingAndGlyphs" textLength="67" x="27" y="55.606">energy: string</text><ellipse cx="18" cy="65.0229" fill="none" rx="3" ry="3" style="stroke: #038048; stroke-width: 1.0;"/><text fill="#000000" font-family="sans-serif" font-size="11" lengthAdjust="spacingAndGlyphs" textLength="54" x="27" y="70.6289">type: string</text><ellipse cx="18" cy="80.0459" fill="none" rx="3" ry="3" style="stroke: #038048; stroke-width: 1.0;"/><text fill="#000000" font-family="sans-serif" font-size="11" lengthAdjust="spacingAndGlyphs" textLength="76" x="27" y="85.6519">name: 设备名称</text><ellipse cx="18" cy="95.0688" fill="none" rx="3" ry="3" style="stroke: #038048; stroke-width: 1.0;"/><text fill="#000000" font-family="sans-serif" font-size="11" lengthAdjust="spacingAndGlyphs" textLength="138" x="27" y="100.6748">inNode: 汽轮机入口节点名称</text><ellipse cx="18" cy="110.0918" fill="none" rx="3" ry="3" style="stroke: #038048; stroke-width: 1.0;"/><text fill="#000000" font-family="sans-serif" font-size="11" lengthAdjust="spacingAndGlyphs" textLength="145" x="27" y="115.6978">outNode: 汽轮机出口节点名称</text><ellipse cx="18" cy="125.1147" fill="none" rx="3" ry="3" style="stroke: #038048; stroke-width: 1.0;"/><text fill="#000000" font-family="sans-serif" font-size="11" lengthAdjust="spacingAndGlyphs" textLength="156" x="27" y="130.7207">extNode: 回热工质出口节点名称</text><ellipse cx="18" cy="140.1377" fill="none" rx="3" ry="3" style="stroke: #038048; stroke-width: 1.0;"/><text fill="#000000" font-family="sans-serif" font-size="11" lengthAdjust="spacingAndGlyphs" textLength="71" x="27" y="145.7437">ef: 汽轮机效率</text><ellipse cx="18" cy="155.1606" fill="none" rx="3" ry="3" style="stroke: #038048; stroke-width: 1.0;"/><text fill="#000000" font-family="sans-serif" font-size="11" lengthAdjust="spacingAndGlyphs" textLength="99" x="27" y="160.7666">iNode: 入口节点参数</text><ellipse cx="18" cy="170.1836" fill="none" rx="3" ry="3" style="stroke: #038048; stroke-width: 1.0;"/><text fill="#000000" font-family="sans-serif" font-size="11" lengthAdjust="spacingAndGlyphs" textLength="103" x="27" y="175.7896">oNode: 出口节点参数</text><ellipse cx="18" cy="185.2065" fill="none" rx="3" ry="3" style="stroke: #038048; stroke-width: 1.0;"/><text fill="#000000" font-family="sans-serif" font-size="11" lengthAdjust="spacingAndGlyphs" textLength="147" x="27" y="190.8125">eNode: 回热工质出口节点参数</text><ellipse cx="18" cy="200.2295" fill="none" rx="3" ry="3" style="stroke: #038048; stroke-width: 1.0;"/><text fill="#000000" font-family="sans-serif" font-size="11" lengthAdjust="spacingAndGlyphs" textLength="156" x="27" y="205.8354">workExtracted: 做功量（kJ/kg）</text><ellipse cx="18" cy="215.2524" fill="none" rx="3" ry="3" style="stroke: #038048; stroke-width: 1.0;"/><text fill="#000000" font-family="sans-serif" font-size="11" lengthAdjust="spacingAndGlyphs" textLength="124" x="27" y="220.8584">WExtracted: 功率（MW）</text><line style="stroke: #A80036; stroke-width: 1.5;" x1="8" x2="188" y1="227.2754" y2="227.2754"/><ellipse cx="18" cy="238.2754" fill="#84BE84" rx="3" ry="3" style="stroke: #038048; stroke-width: 1.0;"/><text fill="#000000" font-family="sans-serif" font-size="11" lengthAdjust="spacingAndGlyphs" textLength="84" x="27" y="243.8813">__init__(): 初始化</text><ellipse cx="18" cy="253.2983" fill="#84BE84" rx="3" ry="3" style="stroke: #038048; stroke-width: 1.0;"/><text fill="#000000" font-family="sans-serif" font-size="11" lengthAdjust="spacingAndGlyphs" textLength="104" x="27" y="258.9043">state(): 状态参数计算</text><ellipse cx="18" cy="268.3213" fill="#84BE84" rx="3" ry="3" style="stroke: #038048; stroke-width: 1.0;"/><text fill="#000000" font-family="sans-serif" font-size="11" lengthAdjust="spacingAndGlyphs" textLength="96" x="27" y="273.9272">balance(): 平衡计算</text><ellipse cx="18" cy="283.3442" fill="#84BE84" rx="3" ry="3" style="stroke: #038048; stroke-width: 1.0;"/><text fill="#000000" font-family="sans-serif" font-size="11" lengthAdjust="spacingAndGlyphs" textLength="112" x="27" y="288.9502">sm_energy(): 功率计算</text><ellipse cx="18" cy="298.3672" fill="#84BE84" rx="3" ry="3" style="stroke: #038048; stroke-width: 1.0;"/><text fill="#000000" font-family="sans-serif" font-size="11" lengthAdjust="spacingAndGlyphs" textLength="95" x="27" y="303.9731">__str__(): 结果输出</text><!--MD5=[67832321e3150940fa604c7adc96a191]
@startuml

class Turbineex1:
{
    +energy: string
    +type: string
    +name: 设备名称
    +inNode: 汽轮机入口节点名称
    +outNode: 汽轮机出口节点名称
    +extNode: 回热工质出口节点名称
    +ef: 汽轮机效率
    +iNode: 入口节点参数
    +oNode: 出口节点参数
    +eNode: 回热工质出口节点参数
    +workExtracted: 做功量（kJ/kg）
    +WExtracted: 功率（MW）
    +__init__(): 初始化
    +state(): 状态参数计算
    +balance(): 平衡计算
    +sm_energy(): 功率计算
    +__str__(): 结果输出
}

@enduml

PlantUML version 1.2020.10(Sun May 17 17:35:57 CST 2020)
(GPL source distribution)
Java Runtime: Java(TM) SE Runtime Environment
JVM: Java HotSpot(TM) 64-Bit Server VM
Java Version: 1.7.0_65-b20
Operating System: Windows 8.1
Default Encoding: GBK
Language: zh
Country: CN
--></g></svg>